<svg width="1600" height="900" viewBox="0 0 1600 900" fill="none" xmlns="http://www.w3.org/2000/svg">
  <g opacity="0.72" stroke="#9CB7B4" stroke-width="1.2">
    <path d="M-40 148C142 80 289 104 430 170C541 222 650 253 782 219C918 184 1067 89 1236 104C1373 116 1490 171 1648 146"/>
    <path d="M-52 212C131 143 283 168 418 233C529 286 638 318 769 286C899 254 1039 162 1197 168C1337 173 1470 233 1657 203"/>
    <path d="M-36 278C151 209 305 239 435 304C542 359 646 387 767 352C903 312 1044 225 1200 230C1337 235 1471 291 1644 269"/>
    <path d="M-30 344C167 279 320 315 452 377C566 431 675 455 800 419C932 381 1065 294 1215 297C1359 300 1496 354 1654 333"/>
    <path d="M-18 417C155 360 303 388 437 448C554 501 671 525 799 486C929 447 1058 363 1200 365C1343 367 1478 417 1640 405"/>
    <path d="M-10 493C169 436 313 462 444 520C560 572 675 597 806 557C944 515 1071 430 1212 434C1356 438 1486 489 1638 474"/>
    <path d="M-8 567C182 509 333 536 462 594C573 644 691 671 820 633C953 594 1079 515 1221 517C1368 519 1497 569 1638 557"/>
    <path d="M-4 639C175 589 320 611 458 666C580 714 704 740 826 703C951 665 1071 595 1211 598C1359 601 1492 647 1632 637"/>
    <path d="M5 713C190 659 337 680 474 730C598 776 720 802 844 767C969 731 1082 667 1217 670C1362 674 1498 713 1637 706"/>
  </g>
</svg>
